<?xml version="1.0" encoding="utf-8"?>
<!-- Generator: Adobe Illustrator 20.1.0, SVG Export Plug-In . SVG Version: 6.00 Build 0)  -->
<svg version="1.1" id="Layer_1" xmlns="http://www.w3.org/2000/svg" xmlns:xlink="http://www.w3.org/1999/xlink" x="0px" y="0px"
	 viewBox="0 0 512 512" style="enable-background:new 0 0 512 512;" xml:space="preserve">
<style type="text/css">
	.st0{fill:#FFFFFF;}
</style>
<g>
	<g>
		<g>
			<path class="st0" d="M381.6,186.6c0.9,0.3,1.8,0.4,2.7,0.4c3.6,0,6.9-2.3,8.1-5.9c1.5-4.5-0.9-9.3-5.4-10.8
				c-5.9-1.9-12-3.6-18.3-4.8c-4.6-0.9-9.1,2.1-10,6.7c-0.9,4.6,2.1,9.1,6.7,10C370.8,183.4,376.3,184.9,381.6,186.6z"/>
			<path class="st0" d="M152.1,367.1c-7.9,1.5-18.3,4.1-22.6,8.4c-3.2,3.2-5,7.5-5,12.1c0,4.6,1.8,8.9,5,12.1c3.2,3.2,7.5,5,12.1,5
				c4.6,0,8.8-1.8,12.1-5c4.3-4.3,6.9-14.7,8.4-22.6c0.5-2.8-0.4-5.6-2.4-7.6C157.7,367.5,154.8,366.6,152.1,367.1z M141.5,396.1
				l-0.4-8.2c0.1-0.1,0.3-0.2,0.4-0.2L141.5,396.1z"/>
			<path class="st0" d="M456.5,266.6c1,3.9,4.5,6.4,8.3,6.4c0.7,0,1.4-0.1,2.1-0.3c4.6-1.2,7.3-5.8,6.2-10.4
				c-7.8-30.8-25.1-56.4-50-74c-3.8-2.7-9.2-1.8-11.9,2c-2.7,3.8-1.8,9.2,2,11.9C434.7,217.6,449.6,239.8,456.5,266.6z"/>
			<path class="st0" d="M76.8,307.2c4.7,0,8.5-3.8,8.5-8.5c0-78.2,37.4-125.7,117.6-149.4c4.5-1.3,7.1-6.1,5.8-10.6
				c-1.3-4.5-6.1-7.1-10.6-5.8c-87.4,25.8-129.9,80-129.9,165.7C68.3,303.4,72.1,307.2,76.8,307.2z"/>
			<path class="st0" d="M189.3,379.2c-4.6,6.6-10.1,15.8-10.1,21.9c0,9.4,7.7,17.1,17.1,17.1c9.4,0,17.1-7.7,17.1-17.1
				c0-6.1-5.5-15.3-10-21.9C200.1,374.5,192.4,374.5,189.3,379.2z"/>
			<path class="st0" d="M240.5,367.1c-2.7-0.5-5.6,0.4-7.6,2.4c-2,2-2.9,4.8-2.4,7.6c1.5,7.9,4.1,18.3,8.4,22.6
				c3.2,3.2,7.5,5,12.1,5c4.6,0,8.8-1.8,12.1-5c3.2-3.2,5-7.5,5-12.1s-1.8-8.8-5-12.1C258.8,371.2,248.4,368.5,240.5,367.1z"/>
			<path class="st0" d="M392.5,332.8c0-4.7-3.8-8.5-8.5-8.5H236.6c-3,0-5.8,1.6-7.4,4.2c-2.5,4.2-8.2,5.5-12.1,2.8
				c-2.2-1.5-4.9-1.9-7.5-1c-2.5,0.8-4.5,2.8-5.4,5.3c-1.2,3.4-4.4,5.7-8,5.7c-3.6,0-6.8-2.3-8-5.7c-0.9-2.5-2.9-4.4-5.4-5.3
				c-2.5-0.8-5.3-0.4-7.5,1c-3.9,2.7-9.6,1.4-12.1-2.8c-1.5-2.6-4.3-4.2-7.4-4.2H8.5c-4.7,0-8.5,3.8-8.5,8.5
				C0,431.6,88,512,196.3,512S392.5,431.6,392.5,332.8z M196.3,494.9c-95.6,0-174-68.1-179-153.6h134.4c6.2,6.9,16.1,10,25,7.8
				c4.8,5.7,11.9,9.2,19.6,9.2c7.7,0,14.8-3.5,19.6-9.2c8.9,2.1,18.8-1,25-7.8h134.4C370.3,426.8,291.9,494.9,196.3,494.9z"/>
			<path class="st0" d="M341.3,128c-16,0-31.7,3.1-42,5.6c6.1-54.8,54.3-83.3,54.8-83.6c4.1-2.4,5.5-7.6,3.1-11.6
				c-2.3-4.1-7.6-5.5-11.6-3.2c-2,1.2-39.1,23-55.9,66.2c-5.7-20.4-14.6-43.1-27.8-56.3C217.4,0.5,164.4,0,162.1,0
				c-4.7,0-8.5,3.8-8.5,8.5c0,2.6,0.4,63.7,36.6,99.9c44.7,44.7,97.7,45.2,99.9,45.2c0.1,0,0.2,0,0.2,0c0.8,0,1.7-0.1,2.5-0.4
				c0.2-0.1,24.7-8.1,48.5-8.1c74,0,153.6,48.1,153.6,153.6c0,104.5-63.8,196.2-136.5,196.2c-4.5,0-18.3,0-32.6-2.5
				c-4.7-0.8-9.1,2.3-9.9,6.9c-0.8,4.6,2.3,9.1,6.9,9.9c15.8,2.8,30.7,2.8,35.6,2.8c83.3,0,153.6-97.7,153.6-213.3
				C512,181.4,423.5,128,341.3,128z M202.3,96.4c-23.5-23.5-29.5-61.1-31.1-78.5c15.8,2.2,49.6,10.2,78.8,39.3
				c17.5,17.5,26.6,58.8,30,78.3C263.8,133.2,230.8,124.9,202.3,96.4z"/>
		</g>
	</g>
</g>
</svg>
