<?xml version="1.0" encoding="utf-8"?>
<!-- Generator: Adobe Illustrator 20.1.0, SVG Export Plug-In . SVG Version: 6.00 Build 0)  -->
<svg version="1.1" id="Layer_1" xmlns="http://www.w3.org/2000/svg" xmlns:xlink="http://www.w3.org/1999/xlink" x="0px" y="0px"
	 viewBox="0 0 512 512" style="enable-background:new 0 0 512 512;" xml:space="preserve">
<style type="text/css">
	.st0{fill:#FFFFFF;}
</style>
<g>
	<g>
		<path class="st0" d="M424.8,235.5c-10.7-10.7-26.8-12.9-39.7-6.5L244.4,88.3c6.4-12.9,4.2-28.9-6.5-39.7
			c-6.5-6.5-15.1-10.1-24.3-10.1s-17.8,3.6-24.3,10.1l-83.7,83.7c-13.4,13.4-13.4,35.3,0,48.7h0c6.7,6.7,15.5,10.1,24.3,10.1
			c5.3,0,10.5-1.2,15.3-3.6l45.4,45.4L3,420.6c-4,4-4,10.4,0,14.4l35.4,35.4c1.9,1.9,4.5,3,7.2,3s5.3-1.1,7.2-3l187.7-187.7
			l45.4,45.4c-2.3,4.7-3.6,9.9-3.6,15.3c0,9.2,3.6,17.8,10.1,24.3c6.5,6.5,15.1,10.1,24.3,10.1s17.8-3.6,24.3-10.1l83.6-83.6
			c6.5-6.5,10.1-15.1,10.1-24.3C434.9,250.6,431.3,242,424.8,235.5z M139.9,166.6c-5.5,5.5-14.4,5.5-19.8,0
			c-5.5-5.5-5.5-14.4,0-19.8l83.6-83.7c2.7-2.7,6.2-4.1,9.9-4.1c3.7,0,7.3,1.5,9.9,4.1c5.5,5.5,5.5,14.4,0,19.8L139.9,166.6z
			 M45.6,448.8l-21-21l180.5-180.5l21,21L45.6,448.8z M161,174.3l70.3-70.3l138.1,138.1l-70.3,70.3L161,174.3z M410.4,269.7
			l-83.6,83.6c-2.7,2.7-6.2,4.1-9.9,4.1c-3.7,0-7.3-1.5-9.9-4.1c0,0,0,0,0,0c-2.7-2.7-4.1-6.2-4.1-9.9s1.5-7.3,4.1-9.9l83.7-83.7
			c2.6-2.6,6.2-4.1,9.9-4.1c3.7,0,7.3,1.5,9.9,4.1c2.7,2.7,4.1,6.2,4.1,9.9S413,267.1,410.4,269.7z"/>
	</g>
</g>
<g>
	<g>
		<path class="st0" d="M477.6,404.4H319.7c-19,0-34.4,15.4-34.4,34.4c0,19,15.4,34.4,34.4,34.4h157.9c19,0,34.4-15.4,34.4-34.4
			C512,419.8,496.6,404.4,477.6,404.4z M477.6,452.9H319.7c-7.7,0-14-6.3-14-14s6.3-14,14-14h157.9c7.7,0,14,6.3,14,14
			S485.3,452.9,477.6,452.9z"/>
	</g>
</g>
<g>
	<g>
		<path class="st0" d="M296.4,181.2l-4.2-4.2c-4-4-10.4-4-14.4,0c-4,4-4,10.4,0,14.4l4.2,4.2c2,2,4.6,3,7.2,3s5.2-1,7.2-3
			C300.4,191.7,300.4,185.2,296.4,181.2z"/>
	</g>
</g>
<g>
	<g>
		<path class="st0" d="M269.3,153.9l-30.8-30.6c-4-4-10.5-3.9-14.4,0.1s-3.9,10.5,0.1,14.4l30.8,30.6c2,2,4.6,3,7.2,3
			c2.6,0,5.2-1,7.2-3C273.3,164.3,273.3,157.9,269.3,153.9z"/>
	</g>
</g>
</svg>
