<?xml version="1.0" encoding="utf-8"?>
<!-- Generator: Adobe Illustrator 20.1.0, SVG Export Plug-In . SVG Version: 6.00 Build 0)  -->
<svg version="1.1" id="Layer_1" xmlns="http://www.w3.org/2000/svg" xmlns:xlink="http://www.w3.org/1999/xlink" x="0px" y="0px"
	 viewBox="0 0 512.1 512.1" style="enable-background:new 0 0 512.1 512.1;" xml:space="preserve">
<style type="text/css">
	.st0{fill:#FFFFFF;}
</style>
<g>
	<g>
		<g>
			<path class="st0" d="M384.5,243.2c-22.5-38.9-56.7-70.4-86.9-98.2c-16.8-15.5-32.7-30.1-44.8-44.3
				C190.7,27.5,125.5,8.5,62.9,44.6C-0.5,81.2-16.1,146,16.6,237.1c6.1,17.1,10.8,37.9,15.7,60.1c9.1,40.4,19.3,86.2,41.8,125.2
				c31.9,55.3,91.4,89.6,155.3,89.6h0c31.3,0,62.2-8.3,89.4-24C404.5,438.6,433.9,328.8,384.5,243.2z M310.4,473.2
				c-24.6,14.2-52.6,21.8-80.9,21.8h0c-57.8,0-111.7-31.1-140.6-81.1c-21.2-36.8-31.2-81.2-40-120.4c-5.1-22.7-9.9-44.1-16.3-62.1
				C3.2,149.1,16.3,91.3,71.5,59.4c18-10.4,36.2-15.6,54.1-15.6c37.5,0,76,22.9,114.2,68c12.7,15,29,30,46.2,45.8
				c29.3,27,62.5,57.5,83.7,94.2C414.4,329.2,387.8,428.6,310.4,473.2z"/>
			<path class="st0" d="M196.1,213.9c-11.2,0-21.5,2.7-30.8,8c-36.7,21.2-43.5,78.2-15.3,127.1c20.5,35.4,54.6,58.3,86.9,58.3
				c11.2,0,21.5-2.7,30.8-8c36.7-21.2,43.5-78.2,15.3-127.1C262.6,236.8,228.5,213.9,196.1,213.9z M259.2,384.6
				c-6.6,3.8-14.1,5.8-22.3,5.8c-26.4,0-54.7-19.5-72.1-49.8c-23.5-40.8-19.5-87.3,9.1-103.8c6.6-3.8,14.1-5.8,22.2-5.8
				c26.4,0,54.7,19.5,72.1,49.8C291.8,321.5,287.7,368.1,259.2,384.6z"/>
			<path class="st0" d="M198.5,247.8c-4.6-1.1-9.2,1.6-10.3,6.2c-1.2,4.6,1.6,9.2,6.2,10.4c0.3,0.1,30.7,8.2,45.7,38.2
				c1.5,3,4.5,4.7,7.6,4.7c1.3,0,2.6-0.3,3.8-0.9c4.2-2.1,5.9-7.2,3.8-11.5C236.6,257.7,200,248.2,198.5,247.8z"/>
			<path class="st0" d="M358.8,93.9L358.8,93.9c-4.8,0-8.6,3.8-8.6,8.5c0,4.7,3.9,8.5,8.6,8.5c4.7,0,8.5-3.8,8.5-8.5
				C367.3,97.8,363.5,93.9,358.8,93.9z"/>
			<path class="st0" d="M418.5,119.5c0-4.7-3.8-8.5-8.5-8.5h-0.1c-4.7,0-8.5,3.8-8.5,8.5c0,4.7,3.9,8.5,8.6,8.5
				C414.7,128.1,418.5,124.2,418.5,119.5z"/>
			<path class="st0" d="M485.9,204.4c-6.8-21.8-13.3-42.4-16.6-60.7C452,48.4,406.1,0.1,332.9,0.1c-42.8,0-76.7,17-100.8,50.5
				c-2.8,3.8-1.9,9.2,1.9,11.9c3.8,2.8,9.2,1.9,11.9-1.9c21-29.2,49.4-43.4,86.9-43.4c63.7,0,104,43.6,119.6,129.5
				c3.5,19.3,10.1,40.5,17.1,62.8c11.9,38,25.4,81.1,25.4,123.4c0,86.6-67.6,157.7-154,161.9c-4.7,0.2-8.3,4.2-8.1,8.9
				c0.2,4.6,4,8.1,8.5,8.1c0.1,0,0.3,0,0.4,0c95.5-4.7,170.2-83.3,170.2-179C512.1,288,498.2,243.5,485.9,204.4z"/>
			<path class="st0" d="M375.9,76.9c4.7,0,8.5-3.8,8.5-8.5c0-4.7-3.8-8.5-8.5-8.5h-0.1c-4.7,0-8.5,3.8-8.5,8.5
				C367.3,73,371.1,76.9,375.9,76.9z"/>
		</g>
	</g>
</g>
</svg>
