<?xml version="1.0" encoding="utf-8"?>
<!-- Generator: Adobe Illustrator 20.1.0, SVG Export Plug-In . SVG Version: 6.00 Build 0)  -->
<svg version="1.1" id="Layer_1" xmlns="http://www.w3.org/2000/svg" xmlns:xlink="http://www.w3.org/1999/xlink" x="0px" y="0px"
	 viewBox="0 0 512.1 512.1" style="enable-background:new 0 0 512.1 512.1;" xml:space="preserve">
<style type="text/css">
	.st0{fill:#FFFFFF;}
</style>
<g>
	<g>
		<g>
			<path class="st0" d="M136.5,153.7c2.2,0,4.4-0.8,6-2.5l17.1-17.1c3.3-3.3,3.3-8.7,0-12.1c-3.3-3.3-8.7-3.3-12.1,0l-17.1,17.1
				c-3.3,3.3-3.3,8.7,0,12.1C132.2,152.9,134.3,153.7,136.5,153.7z"/>
			<path class="st0" d="M502.2,447.8c-1.5-2.4-178.7-269.1-276.1-366.5c-25-25-60.5-35.3-95-27.5c-4.6,1-7.5,5.6-6.4,10.2
				c1,4.6,5.6,7.5,10.2,6.5c28.8-6.5,58.4,2,79.2,22.9c10,10,21,22,32.4,35.2c-2.3,4.5-6.8,12.5-13.5,19.1c-3.3,3.3-3.3,8.7,0,12.1
				c1.7,1.7,3.8,2.5,6,2.5c2.2,0,4.4-0.8,6-2.5c5.7-5.7,10.1-12.1,13.2-17.4c26.1,31.1,54.6,67.8,82.3,105.1
				c-2.2,4.4-6.8,12.7-13.8,19.7c-3.3,3.3-3.3,8.7,0,12.1c1.7,1.7,3.8,2.5,6,2.5c2.2,0,4.4-0.8,6-2.5c5.5-5.5,9.7-11.5,12.8-16.7
				c20,27.2,39.4,54.2,56.9,79.2c-2.2,4.5-6.8,12.6-13.6,19.3c-3.3,3.3-3.3,8.7,0,12.1c1.7,1.7,3.8,2.5,6,2.5c2.2,0,4.4-0.8,6-2.5
				c5.2-5.2,9.3-10.9,12.4-15.9c39.6,56.6,67.6,98.8,68.2,99.8c6.2,9.9,11.7,23.7,2.2,33.1c-6.3,6.3-20.5,7.5-32.5-1.8
				c-1.4-1-6.2-4.4-18.1-12.6c-42.4-29.1-81.2-56.3-116.6-81.5c4.9-3,10.5-7.1,16.1-12.6c3.3-3.3,3.3-8.7,0-12.1
				c-3.3-3.3-8.7-3.3-12.1,0c-7.4,7.4-15.2,11.7-19.4,13.7c-28.6-20.5-54.7-39.6-78.4-57.4c4.8-3,10.5-7.1,15.9-12.6
				c3.3-3.3,3.3-8.7,0-12.1c-3.3-3.3-8.7-3.3-12.1,0c-7.1,7.1-14.5,11.3-18.8,13.4c-10.2-7.7-19.8-15.1-28.9-22.2
				c5.1-3,11.1-7.3,17.1-13.2c3.3-3.3,3.3-8.7,0-12.1c-3.3-3.3-8.7-3.3-12.1,0c-7.6,7.6-15.5,11.9-19.6,13.8
				C137,254.2,111,231.8,93.3,214c-31.3-31.3-33.7-80.6-5.5-114.7c3-3.6,2.5-9-1.1-12c-3.6-3-9-2.5-12,1.1c-1.5,1.8-2.7,3.6-4.1,5.4
				c-24.4-0.5-43.1-4.9-50.8-8.5c4.5-2.3,13.6-5.3,28.1-7c3.1-0.3,5.7-2.4,6.9-5.2c1.2-2.9,0.7-6.1-1.2-8.6
				c-9.7-12.2-14-21.1-15.3-25.7c4.7,1.3,13.5,5.6,25.5,15.1c2.4,1.9,5.7,2.4,8.6,1.2c2.9-1.2,4.9-3.8,5.2-6.9
				c1.7-14.6,4.7-23.8,7-28.3c4.1,8.8,9.3,31,9.3,57c0,4.7,3.8,8.5,8.5,8.5s8.5-3.8,8.5-8.5c0-19.9-4.8-76.8-26-76.8
				c-12.6,0-19,16.6-22.2,32.1c-13.2-8.6-29.2-15.7-38.1-6.9c-8.9,8.9-1.7,25.1,7.1,38.3C16.4,66.9,0,73.3,0,85.8
				c0,11.7,15.3,16.9,26.8,19.8c9.8,2.5,21.7,4.2,33.9,4.9C42.8,148.7,50,194.9,81.2,226.1c51.5,51.5,168.7,140.2,348.5,263.7
				c9.1,6.3,16.3,11.2,17.4,12c8.8,6.8,19.3,10.2,29.3,10.2c9.8,0,19.1-3.3,25.7-9.9C515.4,488.7,515.5,468.9,502.2,447.8z"/>
			<path class="st0" d="M113.4,202.4c1.7,1.7,3.8,2.5,6,2.5s4.4-0.8,6-2.5l17.1-17.1c3.3-3.3,3.3-8.7,0-12.1s-8.7-3.3-12.1,0
				l-17.1,17.1C110.1,193.7,110.1,199.1,113.4,202.4z"/>
			<path class="st0" d="M279.1,245.1l17.1-17.1c3.3-3.3,3.3-8.7,0-12.1c-3.3-3.3-8.7-3.3-12.1,0L267,233c-3.3,3.3-3.3,8.7,0,12.1
				c1.7,1.7,3.8,2.5,6,2.5C275.3,247.6,277.4,246.7,279.1,245.1z"/>
			<path class="st0" d="M221.9,247.6c2.2,0,4.4-0.8,6-2.5L245,228c3.3-3.3,3.3-8.7,0-12.1c-3.3-3.3-8.7-3.3-12.1,0L215.8,233
				c-3.3,3.3-3.3,8.7,0,12.1C217.5,246.7,219.7,247.6,221.9,247.6z"/>
			<path class="st0" d="M415.6,432.8l8.5-8.5c3.3-3.3,3.3-8.7,0-12.1c-3.3-3.3-8.7-3.3-12.1,0l-8.5,8.5c-3.3,3.3-3.3,8.7,0,12.1
				c1.7,1.7,3.8,2.5,6,2.5C411.8,435.3,414,434.5,415.6,432.8z"/>
		</g>
	</g>
</g>
</svg>
