<?xml version="1.0" encoding="utf-8"?>
<!-- Generator: Adobe Illustrator 20.1.0, SVG Export Plug-In . SVG Version: 6.00 Build 0)  -->
<svg version="1.1" id="Layer_1" xmlns="http://www.w3.org/2000/svg" xmlns:xlink="http://www.w3.org/1999/xlink" x="0px" y="0px"
	 viewBox="0 0 512 512" style="enable-background:new 0 0 512 512;" xml:space="preserve">
<style type="text/css">
	.st0{fill:#FFFFFF;}
</style>
<g>
	<g>
		<g>
			<path class="st0" d="M375.7,196.3L375.7,196.3c-4.8,0-8.6,3.8-8.6,8.5s3.9,8.5,8.6,8.5c4.7,0,8.5-3.8,8.5-8.5
				C384.3,200.1,380.4,196.3,375.7,196.3z"/>
			<path class="st0" d="M392.5,332.8c0-4.7-3.8-8.5-8.5-8.5s-8.5,3.8-8.5,8.5c0,89.4-80.4,162.1-179.2,162.1
				c-95.6,0-174-68.2-179-153.6h17.3c5.1,50.8,54.7,136.5,161.7,136.5c113.2,0,162.1-96.1,162.1-145.1c0-4.7-3.8-8.5-8.5-8.5H76.8
				c-4.7,0-8.5,3.8-8.5,8.5s3.8,8.5,8.5,8.5h95.1l-66.3,53.1c-3.7,2.9-4.3,8.3-1.3,12c1.7,2.1,4.2,3.2,6.7,3.2
				c1.9,0,3.8-0.6,5.3-1.9l71.5-57.2v84.6c0,4.7,3.8,8.5,8.5,8.5s8.5-3.8,8.5-8.5v-84.6l71.5,57.2c1.6,1.3,3.4,1.9,5.3,1.9
				c2.5,0,5-1.1,6.7-3.2c2.9-3.7,2.3-9.1-1.3-12l-66.3-53.1h120.2c-5.2,44.9-49.6,119.5-144.6,119.5C95,460.8,51.2,376,51.2,332.8
				c0-4.7-3.8-8.5-8.5-8.5H8.5c-4.7,0-8.5,3.8-8.5,8.5C0,431.6,88,512,196.3,512S392.5,431.6,392.5,332.8z"/>
			<path class="st0" d="M76.8,307.2c4.7,0,8.5-3.8,8.5-8.5v-8.5c0-117.6,63.8-187.7,170.7-187.7c4.7,0,8.5-3.8,8.5-8.5
				s-3.8-8.5-8.5-8.5c-115.8,0-187.7,78.5-187.7,204.8v8.5C68.3,303.4,72.1,307.2,76.8,307.2z"/>
			<path class="st0" d="M435.5,221.9c0-4.7-3.8-8.5-8.5-8.5h-0.1c-4.7,0-8.5,3.8-8.5,8.5s3.9,8.5,8.6,8.5
				C431.6,230.4,435.5,226.6,435.5,221.9z"/>
			<path class="st0" d="M324.3,85.3c-8.9,0-17.6,2-24.5,4.2c8.9-51.7,69.2-72.7,69.9-72.9c4.5-1.5,6.9-6.3,5.4-10.8
				c-1.5-4.5-6.3-6.9-10.8-5.4c-3.4,1.1-82.6,28.4-82.6,102c0,3,1.5,5.7,4,7.3c2.5,1.6,5.6,1.7,8.3,0.4c0.2-0.1,15.6-7.6,30.3-7.6
				c94.1,0,170.7,84.2,170.7,187.7c0,93.4-69,174.6-164,193c-4.6,0.9-7.6,5.4-6.8,10c0.8,4.1,4.4,6.9,8.4,6.9c0.5,0,1.1-0.1,1.6-0.2
				c103-20,177.8-108.2,177.8-209.8C512,177.2,427.8,85.3,324.3,85.3z"/>
			<path class="st0" d="M392.8,179.2c4.7,0,8.5-3.8,8.5-8.5s-3.8-8.5-8.5-8.5h-0.1c-4.7,0-8.5,3.8-8.5,8.5S388.1,179.2,392.8,179.2z
				"/>
		</g>
	</g>
</g>
</svg>
