<?xml version="1.0" encoding="utf-8"?>
<!-- Generator: Adobe Illustrator 20.1.0, SVG Export Plug-In . SVG Version: 6.00 Build 0)  -->
<svg version="1.1" id="Capa_1" xmlns="http://www.w3.org/2000/svg" xmlns:xlink="http://www.w3.org/1999/xlink" x="0px" y="0px"
	 viewBox="0 0 60 60" style="enable-background:new 0 0 60 60;" xml:space="preserve">
<style type="text/css">
	.st0{fill:#FFFFFF;}
</style>
<g>
	<path class="st0" d="M46.4,4H31V1c0-0.6-0.4-1-1-1s-1,0.4-1,1v3H13.6C12.1,4,11,5.1,11,6.6v50.9c0,1.4,1.1,2.6,2.6,2.6h32.9
		c1.4,0,2.6-1.1,2.6-2.6V6.6C49,5.1,47.9,4,46.4,4z M13.6,6H29v2.1c-2.3,0.5-4,2.5-4,4.9c0,2.8,2.2,5,5,5s5-2.2,5-5
		c0-2.4-1.7-4.4-4-4.9V6h15.4C46.7,6,47,6.3,47,6.6V50H13V6.6C13,6.3,13.3,6,13.6,6z M30,14c0.6,0,1-0.4,1-1v-2.8
		c1.2,0.4,2,1.5,2,2.8c0,1.7-1.3,3-3,3s-3-1.3-3-3c0-1.3,0.8-2.4,2-2.8V13C29,13.6,29.4,14,30,14z M46.4,58H13.6
		c-0.3,0-0.6-0.3-0.6-0.6V52h34v5.4C47,57.7,46.7,58,46.4,58z"/>
	<path class="st0" d="M22,45h16c0.6,0,1-0.4,1-1s-0.4-1-1-1H22c-0.6,0-1,0.4-1,1S21.4,45,22,45z"/>
	<path class="st0" d="M22,48h16c0.6,0,1-0.4,1-1s-0.4-1-1-1H22c-0.6,0-1,0.4-1,1S21.4,48,22,48z"/>
</g>
</svg>
