<?xml version="1.0" encoding="utf-8"?>
<!-- Generator: Adobe Illustrator 20.1.0, SVG Export Plug-In . SVG Version: 6.00 Build 0)  -->
<svg version="1.1" id="Layer_1" xmlns="http://www.w3.org/2000/svg" xmlns:xlink="http://www.w3.org/1999/xlink" x="0px" y="0px"
	 viewBox="0 0 512 512" style="enable-background:new 0 0 512 512;" xml:space="preserve">
<style type="text/css">
	.st0{fill:#FFFFFF;}
</style>
<g>
	<g>
		<g>
			<path class="st0" d="M153.6,366.9V384c0,4.7,3.8,8.5,8.5,8.5s8.5-3.8,8.5-8.5v-17.1c0-4.7-3.8-8.5-8.5-8.5
				C157.4,358.4,153.6,362.2,153.6,366.9z"/>
			<path class="st0" d="M503.5,494.9h-8.5V226.1c0-4.7-3.8-8.5-8.5-8.5s-8.5,3.8-8.5,8.5v268.8H34.1V226.1c0-4.7-3.8-8.5-8.5-8.5
				s-8.5,3.8-8.5,8.5v268.8H8.5c-4.7,0-8.5,3.8-8.5,8.5s3.8,8.5,8.5,8.5h494.9c4.7,0,8.5-3.8,8.5-8.5S508.2,494.9,503.5,494.9z"/>
			<path class="st0" d="M196.3,477.9c4.7,0,8.5-3.8,8.5-8.5V264.5c0-4.7-3.8-8.5-8.5-8.5H76.8c-4.7,0-8.5,3.8-8.5,8.5v204.8
				c0,4.7,3.8,8.5,8.5,8.5s8.5-3.8,8.5-8.5V273.1h102.4v196.3C187.7,474,191.6,477.9,196.3,477.9z"/>
			<path class="st0" d="M355.9,309.7c-3.3-3.3-8.7-3.3-12.1,0c-3.3,3.3-3.3,8.7,0,12.1l34.1,34.1c1.7,1.7,3.8,2.5,6,2.5
				c2.2,0,4.4-0.8,6-2.5c3.3-3.3,3.3-8.7,0-12.1L355.9,309.7z"/>
			<path class="st0" d="M469.3,0H42.7C19.1,0,0,19.1,0,42.7v152.7c0,2.6,1.2,5,3.1,6.6c2,1.6,4.6,2.3,7.1,1.7
				c13.6-2.8,25.1-10.9,32.4-21.9c9.2,13.8,24.9,22.9,42.7,22.9c17.8,0,33.5-9.1,42.7-22.9c9.2,13.8,24.9,22.9,42.7,22.9
				s33.5-9.1,42.7-22.9c9.2,13.8,24.9,22.9,42.7,22.9c17.8,0,33.5-9.1,42.7-22.9c9.2,13.8,24.9,22.9,42.7,22.9
				c17.8,0,33.5-9.1,42.7-22.9c9.2,13.8,24.9,22.9,42.7,22.9c17.8,0,33.5-9.1,42.7-22.9c7.3,11,18.8,19.1,32.4,21.9
				c2.5,0.5,5.1-0.1,7.1-1.7c2-1.6,3.1-4,3.1-6.6V42.7C512,19.1,492.9,0,469.3,0z M494.9,183.2c-10.3-6-17.1-17.1-17.1-29.6V42.7
				c0-4.7-3.8-8.5-8.5-8.5s-8.5,3.8-8.5,8.5v110.9c0,18.8-15.3,34.1-34.1,34.1s-34.1-15.3-34.1-34.1V42.7c0-4.7-3.8-8.5-8.5-8.5
				s-8.5,3.8-8.5,8.5v110.9c0,18.8-15.3,34.1-34.1,34.1c-18.8,0-34.1-15.3-34.1-34.1V42.7c0-4.7-3.8-8.5-8.5-8.5s-8.5,3.8-8.5,8.5
				v110.9c0,18.8-15.3,34.1-34.1,34.1c-18.8,0-34.1-15.3-34.1-34.1V42.7c0-4.7-3.8-8.5-8.5-8.5s-8.5,3.8-8.5,8.5v110.9
				c0,18.8-15.3,34.1-34.1,34.1s-34.1-15.3-34.1-34.1V42.7c0-4.7-3.8-8.5-8.5-8.5s-8.5,3.8-8.5,8.5v110.9
				c0,18.8-15.3,34.1-34.1,34.1c-18.8,0-34.1-15.3-34.1-34.1V42.7c0-4.7-3.8-8.5-8.5-8.5s-8.5,3.8-8.5,8.5v110.9
				c0,12.4-6.8,23.6-17.1,29.6V42.7c0-14.1,11.5-25.6,25.6-25.6h426.7c14.1,0,25.6,11.5,25.6,25.6L494.9,183.2L494.9,183.2z"/>
			<path class="st0" d="M435.2,443.7c4.7,0,8.5-3.8,8.5-8.5V264.5c0-4.7-3.8-8.5-8.5-8.5H230.4c-4.7,0-8.5,3.8-8.5,8.5v170.7
				c0,4.7,3.8,8.5,8.5,8.5H435.2z M238.9,273.1h187.7v153.6H238.9V273.1z"/>
			<path class="st0" d="M390,292.6c-3.3-3.3-8.7-3.3-12.1,0s-3.3,8.7,0,12.1l17.1,17.1c1.7,1.7,3.8,2.5,6,2.5c2.2,0,4.4-0.8,6-2.5
				c3.3-3.3,3.3-8.7,0-12.1L390,292.6z"/>
		</g>
	</g>
</g>
</svg>
