<?xml version="1.0" encoding="utf-8"?>
<!-- Generator: Adobe Illustrator 20.1.0, SVG Export Plug-In . SVG Version: 6.00 Build 0)  -->
<svg version="1.1" id="Layer_1" xmlns="http://www.w3.org/2000/svg" xmlns:xlink="http://www.w3.org/1999/xlink" x="0px" y="0px"
	 viewBox="0 0 512 512" style="enable-background:new 0 0 512 512;" xml:space="preserve">
<style type="text/css">
	.st0{fill:#FFFFFF;}
</style>
<g>
	<path class="st0" d="M498.9,196.3c0-23.1-18.8-41.8-41.8-41.8H320.5c1.1-3.1,1.8-6.5,1.8-10c0-3.6-0.6-7-1.8-10.2h4.9
		c4.1,0,7.7-2.4,9.4-6.1l37.7-86.7c1.4-3.2,1.1-6.8-0.8-9.7c-1.9-2.9-5.1-4.6-8.5-4.6H187.8l-15.9-15.9c-1.9-1.9-4.5-3-7.2-3h-29.6
		c-5.6,0-10.2,4.6-10.2,10.2s4.6,10.2,10.2,10.2h25.4l9.8,9.8V124c0,5.6,4.6,10.2,10.2,10.2h3.9c-1.2,3.2-1.8,6.6-1.8,10.2
		c0,3.5,0.6,6.9,1.8,10H55c-23.1,0-41.8,18.8-41.8,41.8v255.1h-3C4.6,451.4,0,456,0,461.6v31.9c0,5.6,4.6,10.2,10.2,10.2h491.6
		c5.6,0,10.2-4.6,10.2-10.2v-31.9c0-5.6-4.6-10.2-10.2-10.2h-3V196.3z M283.5,144.4c0-5.1,4.1-9.2,9.2-9.2c5.1,0,9.2,4.1,9.2,9.2
		s-4.1,9.2-9.2,9.2S283.5,149.5,283.5,144.4z M318.7,113.8H190.7v-8.2H305c5.6,0,10.2-4.6,10.2-10.2s-4.6-10.2-10.2-10.2H190.7v-8.2
		H305c5.6,0,10.2-4.6,10.2-10.2s-4.6-10.2-10.2-10.2H190.7v-9.2h156.8L318.7,113.8z M221.3,144.4c0,5.1-4.1,9.2-9.2,9.2
		s-9.2-4.1-9.2-9.2s4.1-9.2,9.2-9.2S221.3,139.4,221.3,144.4z M239.9,134.2h25c-1.2,3.2-1.8,6.6-1.8,10.2c0,3.5,0.6,6.9,1.8,10H240
		c1.1-3.1,1.8-6.5,1.8-10C241.7,140.8,241.1,137.4,239.9,134.2z M33.5,196.3c0-11.8,9.6-21.4,21.4-21.4h402
		c11.8,0,21.4,9.6,21.4,21.4v52.2H33.5V196.3z M33.5,268.9h444.9v182.5H349.8V310.2c0-5.6-4.6-10.2-10.2-10.2H172.4
		c-5.6,0-10.2,4.6-10.2,10.2v141.2H33.5V268.9z M182.6,451.4v-131h62.2v131H182.6L182.6,451.4z M265.2,320.4h64.3v131h-64.3V320.4z
		 M491.6,471.8v11.5H20.4v-11.5H491.6z"/>
</g>
</svg>
