<?xml version="1.0" encoding="utf-8"?>
<!-- Generator: Adobe Illustrator 20.1.0, SVG Export Plug-In . SVG Version: 6.00 Build 0)  -->
<svg version="1.1" id="Layer_1" xmlns="http://www.w3.org/2000/svg" xmlns:xlink="http://www.w3.org/1999/xlink" x="0px" y="0px"
	 viewBox="0 0 463 463" style="enable-background:new 0 0 463 463;" xml:space="preserve">
<style type="text/css">
	.st0{fill:#FFFFFF;}
</style>
<path class="st0" d="M455.5,336H447v-97h0.5c4.1,0,7.5-3.4,7.5-7.5s-3.4-7.5-7.5-7.5H335v-33h0.5c4.1,0,7.5-3.4,7.5-7.5
	s-3.4-7.5-7.5-7.5H295v-18.2c9.3-3.1,16-11.9,16-22.3c0-13-10.5-23.5-23.5-23.5h-112c-13,0-23.5,10.5-23.5,23.5
	c0,10.3,6.7,19.1,16,22.3V176h-40.5c-4.1,0-7.5,3.4-7.5,7.5s3.4,7.5,7.5,7.5h0.5v33H15.5c-4.1,0-7.5,3.4-7.5,7.5s3.4,7.5,7.5,7.5H16
	v97H7.5c-4.1,0-7.5,3.4-7.5,7.5s3.4,7.5,7.5,7.5h448c4.1,0,7.5-3.4,7.5-7.5S459.6,336,455.5,336z M239,271h49v65h-49V271z M224,336
	h-49v-65h49V336z M295.5,256h-128c-4.1,0-7.5,3.4-7.5,7.5V336h-17V223h177v113h-17v-72.5C303,259.4,299.6,256,295.5,256z M128,271
	v65H87v-65H128z M335,271h41v65h-41V271z M391,271h41v65h-41V271z M432,239v17h-97v-17H432z M175.5,127h112c4.7,0,8.5,3.8,8.5,8.5
	s-3.8,8.5-8.5,8.5h-112c-4.7,0-8.5-3.8-8.5-8.5S170.8,127,175.5,127z M183,159h97v17h-97V159z M320,191v17H143v-17H320z M128,239v17
	H31v-17H128z M31,271h41v65H31V271z"/>
</svg>
